<?xml version="1.0" standalone="no"?>
<!DOCTYPE svg PUBLIC "-//W3C//DTD SVG 20010904//EN"
 "http://www.w3.org/TR/2001/REC-SVG-20010904/DTD/svg10.dtd">
<svg version="1.0" xmlns="http://www.w3.org/2000/svg"
 width="573.000000pt" height="573.000000pt" viewBox="0 0 573.000000 573.000000"
 preserveAspectRatio="xMidYMid meet">
<metadata>
Created by potrace 1.14, written by Peter Selinger 2001-2017
</metadata>
<g transform="translate(0.000000,573.000000) scale(0.100000,-0.100000)"
fill="#000000" stroke="none">
<path d="M2576 4510 c-284 -34 -472 -84 -733 -194 -433 -183 -827 -530 -1095
-966 -79 -130 -196 -389 -218 -485 -1 -5 -6 -17 -11 -27 -9 -16 -57 -200 -65
-248 -19 -108 -24 -142 -30 -195 -12 -109 -13 -139 -14 -373 -1 -127 -6 -234
-11 -237 -8 -5 -387 -115 -396 -115 -2 0 15 -26 38 -57 91 -127 88 -120 94
-228 6 -120 12 -155 29 -155 7 0 50 11 97 25 283 85 680 174 1109 249 14 2 50
7 80 11 30 4 62 8 70 10 8 1 40 6 70 9 30 4 66 9 80 11 21 3 155 17 185 20 6
0 13 -3 16 -7 3 -5 298 -11 655 -14 357 -2 690 -6 739 -8 50 -2 178 -7 285
-10 107 -4 254 -8 325 -11 72 -2 209 -7 305 -10 203 -6 211 -7 420 -45 242
-43 599 -128 850 -200 58 -16 110 -30 117 -30 15 0 22 40 27 156 5 102 10 116
85 214 l50 65 -72 23 c-61 19 -280 80 -312 87 -10 2 -84 22 -116 31 -14 4 -17
30 -17 212 -1 114 -4 240 -7 280 -25 354 -143 729 -327 1042 -46 78 -125 198
-138 210 -3 3 -27 33 -53 67 -51 67 -240 263 -322 333 -331 284 -790 490
-1220 547 -22 2 -51 7 -65 9 -51 9 -437 12 -504 4z"/>
</g>
</svg>
